<svg class="numeral" xmlns="http://www.w3.org/2000/svg" width="100" height="90" viewBox="0 0 1733 1310" version="1.1"><path d="" stroke="none" fill="#080404" fill-rule="evenodd"/><path d="M 850 340.500 C 850 341.569, 851.086 342, 853.777 342 C 855.855 342, 858.555 342.701, 859.777 343.557 L 862 345.113 862 381.557 C 862 416.667, 861.927 418.073, 860 420 C 858.667 421.333, 856.667 422, 854 422 C 851.111 422, 850 422.417, 850 423.500 C 850 424.790, 853.222 425, 873 425 C 892.778 425, 896 424.790, 896 423.500 C 896 422.417, 894.889 422, 892 422 C 889.333 422, 887.333 421.333, 886 420 C 884.074 418.074, 884 416.667, 884 382 C 884 347.333, 884.074 345.926, 886 344 C 887.333 342.667, 889.333 342, 892 342 C 894.889 342, 896 341.583, 896 340.500 C 896 339.210, 892.778 339, 873 339 C 853.222 339, 850 339.210, 850 340.500" stroke="none" fill="#040404" fill-rule="evenodd"/></svg>