<svg class="numeral" xmlns="http://www.w3.org/2000/svg" width="100" height="90" viewBox="0 0 1733 1310" version="1.1"><path d="" stroke="none" fill="#080404" fill-rule="evenodd"/><path d="M 825 340.500 C 825 341.569, 826.086 342, 828.777 342 C 830.855 342, 833.555 342.701, 834.777 343.557 L 837 345.113 837 381.557 C 837 416.667, 836.927 418.073, 835 420 C 833.667 421.333, 831.667 422, 829 422 C 826.111 422, 825 422.417, 825 423.500 C 825 424.790, 828.222 425, 848 425 C 867.778 425, 871 424.790, 871 423.500 C 871 422.417, 869.889 422, 867 422 C 864.333 422, 862.333 421.333, 861 420 C 859.074 418.074, 859 416.667, 859 382 C 859 347.333, 859.074 345.926, 861 344 C 862.333 342.667, 864.333 342, 867 342 C 869.889 342, 871 341.583, 871 340.500 C 871 339.210, 867.778 339, 848 339 C 828.222 339, 825 339.210, 825 340.500 M 875 340.500 C 875 341.569, 876.086 342, 878.777 342 C 880.855 342, 883.555 342.701, 884.777 343.557 L 887 345.113 887 381.557 C 887 416.667, 886.927 418.073, 885 420 C 883.667 421.333, 881.667 422, 879 422 C 876.111 422, 875 422.417, 875 423.500 C 875 424.790, 878.222 425, 898 425 C 917.778 425, 921 424.790, 921 423.500 C 921 422.417, 919.889 422, 917 422 C 914.333 422, 912.333 421.333, 911 420 C 909.074 418.074, 909 416.667, 909 382 C 909 347.333, 909.074 345.926, 911 344 C 912.333 342.667, 914.333 342, 917 342 C 919.889 342, 921 341.583, 921 340.500 C 921 339.210, 917.778 339, 898 339 C 878.222 339, 875 339.210, 875 340.500" stroke="none" fill="#040404" fill-rule="evenodd"/></svg>