<svg class="numeral" xmlns="http://www.w3.org/2000/svg" width="100" height="90" viewBox="0 0 1733 1310" version="1.1"><path d="" stroke="none" fill="#080404" fill-rule="evenodd"/><path d="M 800 340.500 C 800 341.569, 801.086 342, 803.777 342 C 805.855 342, 808.555 342.701, 809.777 343.557 L 812 345.113 812 381.557 C 812 416.667, 811.927 418.073, 810 420 C 808.667 421.333, 806.667 422, 804 422 C 801.111 422, 800 422.417, 800 423.500 C 800 424.790, 803.222 425, 823 425 C 842.778 425, 846 424.790, 846 423.500 C 846 422.417, 844.889 422, 842 422 C 839.333 422, 837.333 421.333, 836 420 C 834.074 418.074, 834 416.667, 834 382 C 834 347.333, 834.074 345.926, 836 344 C 837.333 342.667, 839.333 342, 842 342 C 844.889 342, 846 341.583, 846 340.500 C 846 339.210, 842.778 339, 823 339 C 803.222 339, 800 339.210, 800 340.500 M 850 340.500 C 850 341.569, 851.086 342, 853.777 342 C 855.855 342, 858.555 342.701, 859.777 343.557 L 862 345.113 862 381.557 C 862 416.667, 861.927 418.073, 860 420 C 858.667 421.333, 856.667 422, 854 422 C 851.111 422, 850 422.417, 850 423.500 C 850 424.790, 853.222 425, 873 425 C 892.778 425, 896 424.790, 896 423.500 C 896 422.417, 894.889 422, 892 422 C 889.333 422, 887.333 421.333, 886 420 C 884.074 418.074, 884 416.667, 884 382 C 884 347.333, 884.074 345.926, 886 344 C 887.333 342.667, 889.333 342, 892 342 C 894.889 342, 896 341.583, 896 340.500 C 896 339.210, 892.778 339, 873 339 C 853.222 339, 850 339.210, 850 340.500 M 900 340.500 C 900 341.569, 901.086 342, 903.777 342 C 905.855 342, 908.555 342.701, 909.777 343.557 L 912 345.113 912 381.557 C 912 416.667, 911.927 418.073, 910 420 C 908.667 421.333, 906.667 422, 904 422 C 901.111 422, 900 422.417, 900 423.500 C 900 424.790, 903.222 425, 923 425 C 942.778 425, 946 424.790, 946 423.500 C 946 422.417, 944.889 422, 942 422 C 939.333 422, 937.333 421.333, 936 420 C 934.074 418.074, 934 416.667, 934 382 C 934 347.333, 934.074 345.926, 936 344 C 937.333 342.667, 939.333 342, 942 342 C 944.889 342, 946 341.583, 946 340.500 C 946 339.210, 942.778 339, 923 339 C 903.222 339, 900 339.210, 900 340.500" stroke="none" fill="#040404" fill-rule="evenodd"/></svg>