<svg class="numeral" xmlns="http://www.w3.org/2000/svg" width="100" height="90" viewBox="0 0 1733 1310" version="1.1"><path d="" stroke="none" fill="#080404" fill-rule="evenodd"/><path d="M 852 339.466 C 852 340.295, 853.594 341.639, 855.542 342.453 C 859.670 344.178, 858.571 341.963, 880.487 392.750 C 888.649 411.665, 895.827 427, 896.519 427 C 897.208 427, 903.509 414.288, 910.521 398.750 C 934.463 345.697, 934.653 345.342, 940.480 342.576 C 942.416 341.658, 944 340.252, 944 339.453 C 944 338.249, 941.514 338, 929.500 338 C 917.329 338, 915 338.239, 915 339.488 C 915 340.448, 916.403 341.201, 918.954 341.609 C 924.253 342.456, 926.429 344.969, 925.709 349.407 C 925.126 352.997, 906.014 397.011, 905.049 396.986 C 904.747 396.978, 899.599 385.429, 893.609 371.321 C 885.417 352.027, 882.963 345.278, 883.706 344.085 C 884.249 343.213, 886.799 342.085, 889.373 341.578 C 891.946 341.070, 893.890 340.170, 893.693 339.578 C 893.456 338.866, 886.321 338.408, 872.667 338.230 C 854.802 337.996, 852 338.164, 852 339.466 M 802 340.500 C 802 341.569, 803.086 342, 805.777 342 C 807.855 342, 810.555 342.701, 811.777 343.557 L 814 345.113 814 381.557 C 814 416.667, 813.927 418.073, 812 420 C 810.667 421.333, 808.667 422, 806 422 C 803.111 422, 802 422.417, 802 423.500 C 802 424.790, 805.222 425, 825 425 C 844.778 425, 848 424.790, 848 423.500 C 848 422.417, 846.889 422, 844 422 C 841.333 422, 839.333 421.333, 838 420 C 836.074 418.074, 836 416.667, 836 382 C 836 347.333, 836.074 345.926, 838 344 C 839.333 342.667, 841.333 342, 844 342 C 846.889 342, 848 341.583, 848 340.500 C 848 339.210, 844.778 339, 825 339 C 805.222 339, 802 339.210, 802 340.500" stroke="none" fill="#040404" fill-rule="evenodd"/></svg>