<svg class="numeral" xmlns="http://www.w3.org/2000/svg" width="100" height="90" viewBox="0 0 1733 1310" version="1.1"><path d="" stroke="none" fill="#080404" fill-rule="evenodd"/><path d="M 800 340.500 C 800 341.569, 801.086 342, 803.777 342 C 805.855 342, 808.555 342.701, 809.777 343.557 L 812 345.113 812 381.557 C 812 416.667, 811.927 418.073, 810 420 C 808.667 421.333, 806.667 422, 804 422 C 801.111 422, 800 422.417, 800 423.500 C 800 424.790, 803.222 425, 823 425 C 842.778 425, 846 424.790, 846 423.500 C 846 422.417, 844.889 422, 842 422 C 839.333 422, 837.333 421.333, 836 420 C 834.074 418.074, 834 416.667, 834 382 C 834 347.333, 834.074 345.926, 836 344 C 837.333 342.667, 839.333 342, 842 342 C 844.889 342, 846 341.583, 846 340.500 C 846 339.210, 842.778 339, 823 339 C 803.222 339, 800 339.210, 800 340.500 M 849 340.500 C 849 341.325, 849.800 342, 850.777 342 C 854.265 342, 857.119 345.331, 870.306 364.788 C 877.654 375.630, 883.970 385.026, 884.342 385.669 C 884.979 386.771, 865.323 411.661, 859.763 416.794 C 858.396 418.056, 855.095 419.917, 852.427 420.929 C 843.548 424.300, 845.525 425, 863.917 425 C 878.435 425, 881 424.775, 881 423.500 C 881 422.472, 879.969 422, 877.723 422 C 875.920 422, 873.445 421.299, 872.223 420.443 C 867.941 417.444, 869.192 414.865, 883.463 397.270 L 888.426 391.150 896.531 403.325 C 900.989 410.021, 904.924 416.274, 905.276 417.221 C 906.109 419.463, 903.536 422, 900.429 422 C 898.937 422, 898 422.578, 898 423.500 C 898 424.786, 901 425, 919 425 C 937 425, 940 424.786, 940 423.500 C 940 422.675, 939.360 422, 938.577 422 C 935.492 422, 930.456 416.016, 917.481 396.936 C 910.041 385.994, 903.692 376.361, 903.373 375.529 C 902.630 373.594, 925.846 345.648, 929.964 343.518 C 931.579 342.683, 934.048 342, 935.450 342 C 937.050 342, 938 341.441, 938 340.500 C 938 339.227, 935.500 339, 921.500 339 C 907.500 339, 905 339.227, 905 340.500 C 905 341.500, 906 342, 908 342 C 910.922 342, 915 344.936, 915 347.040 C 915 349.232, 910.908 355.784, 905.207 362.723 L 899.272 369.945 891.636 358.480 C 887.436 352.174, 884 346.426, 884 345.707 C 884 343.471, 886.262 342, 889.700 342 C 891.967 342, 893 341.530, 893 340.500 C 893 339.212, 889.889 339, 871 339 C 852.111 339, 849 339.212, 849 340.500" stroke="none" fill="#040404" fill-rule="evenodd"/></svg>