<svg class="numeral" xmlns="http://www.w3.org/2000/svg" width="100" height="90" viewBox="0 0 1733 1310" version="1.1"><path d="" stroke="none" fill="#080404" fill-rule="evenodd"/><path d="M 827 339.466 C 827 340.295, 828.594 341.639, 830.542 342.453 C 834.670 344.178, 833.571 341.963, 855.487 392.750 C 863.649 411.665, 870.827 427, 871.519 427 C 872.208 427, 878.509 414.288, 885.521 398.750 C 909.463 345.697, 909.653 345.342, 915.480 342.576 C 917.416 341.658, 919 340.252, 919 339.453 C 919 338.249, 916.514 338, 904.500 338 C 892.329 338, 890 338.239, 890 339.488 C 890 340.448, 891.403 341.201, 893.954 341.609 C 899.253 342.456, 901.429 344.969, 900.709 349.407 C 900.126 352.997, 881.014 397.011, 880.049 396.986 C 879.747 396.978, 874.599 385.429, 868.609 371.321 C 860.417 352.027, 857.963 345.278, 858.706 344.085 C 859.249 343.213, 861.799 342.085, 864.373 341.578 C 866.946 341.070, 868.890 340.170, 868.693 339.578 C 868.456 338.866, 861.321 338.408, 847.667 338.230 C 829.802 337.996, 827 338.164, 827 339.466" stroke="none" fill="#040404" fill-rule="evenodd"/></svg>