<svg class="numeral" xmlns="http://www.w3.org/2000/svg" width="100" height="90" viewBox="0 0 1733 1310" version="1.1"><path d="" stroke="none" fill="#080404" fill-rule="evenodd"/><path d="M 801 339.466 C 801 340.295, 802.594 341.639, 804.542 342.453 C 808.670 344.178, 807.571 341.963, 829.487 392.750 C 837.649 411.665, 844.827 427, 845.519 427 C 846.208 427, 852.509 414.288, 859.521 398.750 C 883.463 345.697, 883.653 345.342, 889.480 342.576 C 891.416 341.658, 893 340.252, 893 339.453 C 893 338.249, 890.514 338, 878.500 338 C 866.329 338, 864 338.239, 864 339.488 C 864 340.448, 865.403 341.201, 867.954 341.609 C 873.253 342.456, 875.429 344.969, 874.709 349.407 C 874.126 352.997, 855.014 397.011, 854.049 396.986 C 853.747 396.978, 848.599 385.429, 842.609 371.321 C 834.417 352.027, 831.963 345.278, 832.706 344.085 C 833.249 343.213, 835.799 342.085, 838.373 341.578 C 840.946 341.070, 842.890 340.170, 842.693 339.578 C 842.456 338.866, 835.321 338.408, 821.667 338.230 C 803.802 337.996, 801 338.164, 801 339.466 M 897 340.500 C 897 341.569, 898.086 342, 900.777 342 C 902.855 342, 905.555 342.701, 906.777 343.557 L 909 345.113 909 381.557 C 909 416.667, 908.927 418.073, 907 420 C 905.667 421.333, 903.667 422, 901 422 C 898.111 422, 897 422.417, 897 423.500 C 897 424.790, 900.222 425, 920 425 C 939.778 425, 943 424.790, 943 423.500 C 943 422.417, 941.889 422, 939 422 C 936.333 422, 934.333 421.333, 933 420 C 931.074 418.074, 931 416.667, 931 382 C 931 347.333, 931.074 345.926, 933 344 C 934.333 342.667, 936.333 342, 939 342 C 941.889 342, 943 341.583, 943 340.500 C 943 339.210, 939.778 339, 920 339 C 900.222 339, 897 339.210, 897 340.500" stroke="none" fill="#040404" fill-rule="evenodd"/></svg>