<svg class="numeral" xmlns="http://www.w3.org/2000/svg" width="100" height="90" viewBox="0 0 1733 1310" version="1.1"><path d="" stroke="none" fill="#080404" fill-rule="evenodd"/><path d="M 776 339.466 C 776 340.295, 777.594 341.639, 779.542 342.453 C 783.670 344.178, 782.571 341.963, 804.487 392.750 C 812.649 411.665, 819.827 427, 820.519 427 C 821.208 427, 827.509 414.288, 834.521 398.750 C 858.463 345.697, 858.653 345.342, 864.480 342.576 C 866.416 341.658, 868 340.252, 868 339.453 C 868 338.249, 865.514 338, 853.500 338 C 841.329 338, 839 338.239, 839 339.488 C 839 340.448, 840.403 341.201, 842.954 341.609 C 848.253 342.456, 850.429 344.969, 849.709 349.407 C 849.126 352.997, 830.014 397.011, 829.049 396.986 C 828.747 396.978, 823.599 385.429, 817.609 371.321 C 809.417 352.027, 806.963 345.278, 807.706 344.085 C 808.249 343.213, 810.799 342.085, 813.373 341.578 C 815.946 341.070, 817.890 340.170, 817.693 339.578 C 817.456 338.866, 810.321 338.408, 796.667 338.230 C 778.802 337.996, 776 338.164, 776 339.466 M 872 340.500 C 872 341.569, 873.086 342, 875.777 342 C 877.855 342, 880.555 342.701, 881.777 343.557 L 884 345.113 884 381.557 C 884 416.667, 883.927 418.073, 882 420 C 880.667 421.333, 878.667 422, 876 422 C 873.111 422, 872 422.417, 872 423.500 C 872 424.790, 875.222 425, 895 425 C 914.778 425, 918 424.790, 918 423.500 C 918 422.417, 916.889 422, 914 422 C 911.333 422, 909.333 421.333, 908 420 C 906.074 418.074, 906 416.667, 906 382 C 906 347.333, 906.074 345.926, 908 344 C 909.333 342.667, 911.333 342, 914 342 C 916.889 342, 918 341.583, 918 340.500 C 918 339.210, 914.778 339, 895 339 C 875.222 339, 872 339.210, 872 340.500 M 922 340.500 C 922 341.569, 923.086 342, 925.777 342 C 927.855 342, 930.555 342.701, 931.777 343.557 L 934 345.113 934 381.557 C 934 416.667, 933.927 418.073, 932 420 C 930.667 421.333, 928.667 422, 926 422 C 923.111 422, 922 422.417, 922 423.500 C 922 424.790, 925.222 425, 945 425 C 964.778 425, 968 424.790, 968 423.500 C 968 422.417, 966.889 422, 964 422 C 961.333 422, 959.333 421.333, 958 420 C 956.074 418.074, 956 416.667, 956 382 C 956 347.333, 956.074 345.926, 958 344 C 959.333 342.667, 961.333 342, 964 342 C 966.889 342, 968 341.583, 968 340.500 C 968 339.210, 964.778 339, 945 339 C 925.222 339, 922 339.210, 922 340.500" stroke="none" fill="#040404" fill-rule="evenodd"/></svg>