<svg class="numeral" xmlns="http://www.w3.org/2000/svg" width="100" height="90" viewBox="0 0 1733 1310" version="1.1"><path d="" stroke="none" fill="#080404" fill-rule="evenodd"/><path d="M 751 339.466 C 751 340.295, 752.594 341.639, 754.542 342.453 C 758.670 344.178, 757.571 341.963, 779.487 392.750 C 787.649 411.665, 794.827 427, 795.519 427 C 796.208 427, 802.509 414.288, 809.521 398.750 C 833.463 345.697, 833.653 345.342, 839.480 342.576 C 841.416 341.658, 843 340.252, 843 339.453 C 843 338.249, 840.514 338, 828.500 338 C 816.329 338, 814 338.239, 814 339.488 C 814 340.448, 815.403 341.201, 817.954 341.609 C 823.253 342.456, 825.429 344.969, 824.709 349.407 C 824.126 352.997, 805.014 397.011, 804.049 396.986 C 803.747 396.978, 798.599 385.429, 792.609 371.321 C 784.417 352.027, 781.963 345.278, 782.706 344.085 C 783.249 343.213, 785.799 342.085, 788.373 341.578 C 790.946 341.070, 792.890 340.170, 792.693 339.578 C 792.456 338.866, 785.321 338.408, 771.667 338.230 C 753.802 337.996, 751 338.164, 751 339.466 M 847 340.500 C 847 341.569, 848.086 342, 850.777 342 C 852.855 342, 855.555 342.701, 856.777 343.557 L 859 345.113 859 381.557 C 859 416.667, 858.927 418.073, 857 420 C 855.667 421.333, 853.667 422, 851 422 C 848.111 422, 847 422.417, 847 423.500 C 847 424.790, 850.222 425, 870 425 C 889.778 425, 893 424.790, 893 423.500 C 893 422.417, 891.889 422, 889 422 C 886.333 422, 884.333 421.333, 883 420 C 881.074 418.074, 881 416.667, 881 382 C 881 347.333, 881.074 345.926, 883 344 C 884.333 342.667, 886.333 342, 889 342 C 891.889 342, 893 341.583, 893 340.500 C 893 339.210, 889.778 339, 870 339 C 850.222 339, 847 339.210, 847 340.500 M 897 340.500 C 897 341.569, 898.086 342, 900.777 342 C 902.855 342, 905.555 342.701, 906.777 343.557 L 909 345.113 909 381.557 C 909 416.667, 908.927 418.073, 907 420 C 905.667 421.333, 903.667 422, 901 422 C 898.111 422, 897 422.417, 897 423.500 C 897 424.790, 900.222 425, 920 425 C 939.778 425, 943 424.790, 943 423.500 C 943 422.417, 941.889 422, 939 422 C 936.333 422, 934.333 421.333, 933 420 C 931.074 418.074, 931 416.667, 931 382 C 931 347.333, 931.074 345.926, 933 344 C 934.333 342.667, 936.333 342, 939 342 C 941.889 342, 943 341.583, 943 340.500 C 943 339.210, 939.778 339, 920 339 C 900.222 339, 897 339.210, 897 340.500 M 947 340.500 C 947 341.569, 948.086 342, 950.777 342 C 952.855 342, 955.555 342.701, 956.777 343.557 L 959 345.113 959 381.557 C 959 416.667, 958.927 418.073, 957 420 C 955.667 421.333, 953.667 422, 951 422 C 948.111 422, 947 422.417, 947 423.500 C 947 424.790, 950.222 425, 970 425 C 989.778 425, 993 424.790, 993 423.500 C 993 422.417, 991.889 422, 989 422 C 986.333 422, 984.333 421.333, 983 420 C 981.074 418.074, 981 416.667, 981 382 C 981 347.333, 981.074 345.926, 983 344 C 984.333 342.667, 986.333 342, 989 342 C 991.889 342, 993 341.583, 993 340.500 C 993 339.210, 989.778 339, 970 339 C 950.222 339, 947 339.210, 947 340.500" stroke="none" fill="#040404" fill-rule="evenodd"/></svg>