<svg class="numeral" xmlns="http://www.w3.org/2000/svg" width="100" height="90" viewBox="0 0 1733 1310" version="1.1"><path d="" stroke="none" fill="#080404" fill-rule="evenodd"/><path d="M 824 340.500 C 824 341.325, 824.800 342, 825.777 342 C 829.265 342, 832.119 345.331, 845.306 364.788 C 852.654 375.630, 858.970 385.026, 859.342 385.669 C 860.069 386.926, 839.333 412.859, 834.038 417.315 C 832.318 418.762, 829.130 420.480, 826.955 421.132 C 824.780 421.783, 823 422.920, 823 423.658 C 823 424.726, 826.365 425, 839.500 425 C 853.500 425, 856 424.773, 856 423.500 C 856 422.472, 854.969 422, 852.723 422 C 850.920 422, 848.445 421.299, 847.223 420.443 C 842.941 417.444, 844.192 414.865, 858.463 397.270 L 863.426 391.150 871.531 403.325 C 875.989 410.021, 879.924 416.274, 880.276 417.221 C 881.109 419.463, 878.536 422, 875.429 422 C 873.937 422, 873 422.578, 873 423.500 C 873 424.786, 876 425, 894 425 C 912 425, 915 424.786, 915 423.500 C 915 422.675, 914.360 422, 913.577 422 C 910.492 422, 905.456 416.016, 892.481 396.936 C 885.041 385.994, 878.692 376.361, 878.373 375.529 C 877.630 373.594, 900.846 345.648, 904.964 343.518 C 906.579 342.683, 909.048 342, 910.450 342 C 912.050 342, 913 341.441, 913 340.500 C 913 339.227, 910.500 339, 896.500 339 C 882.500 339, 880 339.227, 880 340.500 C 880 341.500, 881 342, 883 342 C 885.922 342, 890 344.936, 890 347.040 C 890 349.232, 885.908 355.784, 880.207 362.723 L 874.272 369.945 866.636 358.480 C 862.436 352.174, 859 346.426, 859 345.707 C 859 343.471, 861.262 342, 864.700 342 C 866.967 342, 868 341.530, 868 340.500 C 868 339.212, 864.889 339, 846 339 C 827.111 339, 824 339.212, 824 340.500" stroke="none" fill="#040404" fill-rule="evenodd"/></svg>